HIERARCHY
ROOT Hips
{
	OFFSET -341.196167 -577.024780 88.986252
	CHANNELS 6 Xposition Yposition Zposition Zrotation Yrotation Xrotation
	JOINT Spine
	{
		OFFSET 0.000000 2.080078 8.814247
		CHANNELS 6 Xposition Yposition Zposition Zrotation Yrotation Xrotation
		JOINT Spine1
		{
			OFFSET 0.000000 0.000000 8.844139
			CHANNELS 6 Xposition Yposition Zposition Zrotation Yrotation Xrotation
			JOINT Spine2
			{
				OFFSET 0.000000 0.000000 11.682266
				CHANNELS 6 Xposition Yposition Zposition Zrotation Yrotation Xrotation
				JOINT Spine3
				{
					OFFSET 0.000000 0.000000 11.746704
					CHANNELS 6 Xposition Yposition Zposition Zrotation Yrotation Xrotation
					JOINT Neck
					{
						OFFSET 0.000000 0.000000 17.658264
						CHANNELS 6 Xposition Yposition Zposition Zrotation Yrotation Xrotation
						JOINT Neck1
						{
							OFFSET 0.000000 0.000000 5.101517
							CHANNELS 6 Xposition Yposition Zposition Zrotation Yrotation Xrotation
							JOINT Head
							{
								OFFSET 0.000000 0.000000 5.101517
								CHANNELS 6 Xposition Yposition Zposition Zrotation Yrotation Xrotation
								JOINT HeadEnd
								{
									OFFSET 0.000000 0.000000 11.655090
									CHANNELS 6 Xposition Yposition Zposition Zrotation Yrotation Xrotation
									End Site
									{
										OFFSET 0.000000 0.000000 0.100006
									}
								}
							}
						}
					}
					JOINT RightShoulder
					{
						OFFSET -2.625397 0.000000 11.175217
						CHANNELS 6 Xposition Yposition Zposition Zrotation Yrotation Xrotation
						JOINT RightArm
						{
							OFFSET 0.000000 0.000000 10.434723
							CHANNELS 6 Xposition Yposition Zposition Zrotation Yrotation Xrotation
							JOINT RightForeArm
							{
								OFFSET 0.000000 0.000000 29.628418
								CHANNELS 6 Xposition Yposition Zposition Zrotation Yrotation Xrotation
								JOINT RightHand
								{
									OFFSET 0.000000 0.000000 22.857605
									CHANNELS 6 Xposition Yposition Zposition Zrotation Yrotation Xrotation
									JOINT RightHandThumb1
									{
										OFFSET -2.867310 -2.944275 3.959564
										CHANNELS 6 Xposition Yposition Zposition Zrotation Yrotation Xrotation
										JOINT RightHandThumb2
										{
											OFFSET 0.000000 0.000000 3.350403
											CHANNELS 6 Xposition Yposition Zposition Zrotation Yrotation Xrotation
											JOINT RightHandThumb3
											{
												OFFSET 0.000000 0.000000 3.756516
												CHANNELS 6 Xposition Yposition Zposition Zrotation Yrotation Xrotation
												JOINT RightHandThumb4
												{
													OFFSET 0.000000 0.000000 3.147339
													CHANNELS 6 Xposition Yposition Zposition Zrotation Yrotation Xrotation
													End Site
													{
														OFFSET 0.000000 0.000000 0.100006
													}
												}
											}
										}
									}
									JOINT RightHandIndex1
									{
										OFFSET -0.086761 -2.345276 10.030899
										CHANNELS 6 Xposition Yposition Zposition Zrotation Yrotation Xrotation
										JOINT RightHandIndex2
										{
											OFFSET 0.000000 0.000000 4.061096
											CHANNELS 6 Xposition Yposition Zposition Zrotation Yrotation Xrotation
											JOINT RightHandIndex3
											{
												OFFSET 0.000000 0.000000 3.248871
												CHANNELS 6 Xposition Yposition Zposition Zrotation Yrotation Xrotation
												JOINT RightHandIndex4
												{
													OFFSET 0.000000 0.000000 2.639709
													CHANNELS 6 Xposition Yposition Zposition Zrotation Yrotation Xrotation
													End Site
													{
														OFFSET 0.000000 0.000000 0.100006
													}
												}
											}
										}
									}
									JOINT RightHandMiddle1
									{
										OFFSET 0.104095 -0.006775 9.502945
										CHANNELS 6 Xposition Yposition Zposition Zrotation Yrotation Xrotation
										JOINT RightHandMiddle2
										{
											OFFSET 0.000000 0.000000 4.568726
											CHANNELS 6 Xposition Yposition Zposition Zrotation Yrotation Xrotation
											JOINT RightHandMiddle3
											{
												OFFSET 0.000000 0.000000 3.654984
												CHANNELS 6 Xposition Yposition Zposition Zrotation Yrotation Xrotation
												JOINT RightHandMiddle4
												{
													OFFSET 0.000000 0.000000 2.741241
													CHANNELS 6 Xposition Yposition Zposition Zrotation Yrotation Xrotation
													End Site
													{
														OFFSET 0.000000 0.000000 0.100006
													}
												}
											}
										}
									}
									JOINT RightHandRing1
									{
										OFFSET 0.086761 2.267456 8.921707
										CHANNELS 6 Xposition Yposition Zposition Zrotation Yrotation Xrotation
										JOINT RightHandRing2
										{
											OFFSET 0.000000 0.000000 4.061096
											CHANNELS 6 Xposition Yposition Zposition Zrotation Yrotation Xrotation
											JOINT RightHandRing3
											{
												OFFSET 0.000000 0.000000 3.654984
												CHANNELS 6 Xposition Yposition Zposition Zrotation Yrotation Xrotation
												JOINT RightHandRing4
												{
													OFFSET 0.000000 0.000000 2.741241
													CHANNELS 6 Xposition Yposition Zposition Zrotation Yrotation Xrotation
													End Site
													{
														OFFSET 0.000000 0.000000 0.100006
													}
												}
											}
										}
									}
									JOINT RightHandPinky1
									{
										OFFSET -0.173492 4.467224 7.976990
										CHANNELS 6 Xposition Yposition Zposition Zrotation Yrotation Xrotation
										JOINT RightHandPinky2
										{
											OFFSET 0.000000 0.000000 3.350403
											CHANNELS 6 Xposition Yposition Zposition Zrotation Yrotation Xrotation
											JOINT RightHandPinky3
											{
												OFFSET 0.000000 0.000000 2.842758
												CHANNELS 6 Xposition Yposition Zposition Zrotation Yrotation Xrotation
												JOINT RightHandPinky4
												{
													OFFSET 0.000000 0.000000 2.639709
													CHANNELS 6 Xposition Yposition Zposition Zrotation Yrotation Xrotation
													End Site
													{
														OFFSET 0.000000 0.000000 0.100006
													}
												}
											}
										}
									}
									JOINT RightForeArmEnd
									{
										OFFSET 0.000000 0.000000 0.000000
										CHANNELS 6 Xposition Yposition Zposition Zrotation Yrotation Xrotation
										End Site
										{
											OFFSET 0.000000 0.000000 0.100006
										}
									}
								}
								JOINT RightArmEnd
								{
									OFFSET 0.000000 0.000000 0.000000
									CHANNELS 6 Xposition Yposition Zposition Zrotation Yrotation Xrotation
									End Site
									{
										OFFSET 0.000000 0.000000 0.100006
									}
								}
							}
						}
					}
					JOINT LeftShoulder
					{
						OFFSET 2.625397 0.000000 11.175217
						CHANNELS 6 Xposition Yposition Zposition Zrotation Yrotation Xrotation
						JOINT LeftArm
						{
							OFFSET 0.000000 0.000000 10.813629
							CHANNELS 6 Xposition Yposition Zposition Zrotation Yrotation Xrotation
							JOINT LeftForeArm
							{
								OFFSET 0.000000 0.000000 28.724777
								CHANNELS 6 Xposition Yposition Zposition Zrotation Yrotation Xrotation
								JOINT LeftHand
								{
									OFFSET 0.644379 0.328857 25.716171
									CHANNELS 6 Xposition Yposition Zposition Zrotation Yrotation Xrotation
									JOINT LeftHandThumb1
									{
										OFFSET 2.867310 -2.944275 3.959564
										CHANNELS 6 Xposition Yposition Zposition Zrotation Yrotation Xrotation
										JOINT LeftHandThumb2
										{
											OFFSET 0.000000 0.000000 3.350403
											CHANNELS 6 Xposition Yposition Zposition Zrotation Yrotation Xrotation
											JOINT LeftHandThumb3
											{
												OFFSET 0.000000 0.000000 3.756516
												CHANNELS 6 Xposition Yposition Zposition Zrotation Yrotation Xrotation
												JOINT LeftHandThumb4
												{
													OFFSET 0.000000 0.000000 3.100006
													CHANNELS 6 Xposition Yposition Zposition Zrotation Yrotation Xrotation
													End Site
													{
														OFFSET 0.000000 0.000000 0.100006
													}
												}
											}
										}
									}
									JOINT LeftHandIndex1
									{
										OFFSET 0.086761 -2.345276 10.030899
										CHANNELS 6 Xposition Yposition Zposition Zrotation Yrotation Xrotation
										JOINT LeftHandIndex2
										{
											OFFSET 0.000000 0.000000 4.061096
											CHANNELS 6 Xposition Yposition Zposition Zrotation Yrotation Xrotation
											JOINT LeftHandIndex3
											{
												OFFSET 0.000000 0.000000 3.248871
												CHANNELS 6 Xposition Yposition Zposition Zrotation Yrotation Xrotation
												JOINT LeftHandIndex4
												{
													OFFSET 0.000000 0.000000 2.639709
													CHANNELS 6 Xposition Yposition Zposition Zrotation Yrotation Xrotation
													End Site
													{
														OFFSET 0.000000 0.000000 0.100006
													}
												}
											}
										}
									}
									JOINT LeftHandMiddle1
									{
										OFFSET -0.104095 -0.006775 9.502945
										CHANNELS 6 Xposition Yposition Zposition Zrotation Yrotation Xrotation
										JOINT LeftHandMiddle2
										{
											OFFSET 0.000000 0.000000 4.568726
											CHANNELS 6 Xposition Yposition Zposition Zrotation Yrotation Xrotation
											JOINT LeftHandMiddle3
											{
												OFFSET 0.000000 0.000000 3.654984
												CHANNELS 6 Xposition Yposition Zposition Zrotation Yrotation Xrotation
												JOINT LeftHandMiddle4
												{
													OFFSET 0.000000 0.000000 2.741241
													CHANNELS 6 Xposition Yposition Zposition Zrotation Yrotation Xrotation
													End Site
													{
														OFFSET 0.000000 0.000000 0.100006
													}
												}
											}
										}
									}
									JOINT LeftHandRing1
									{
										OFFSET -0.086761 2.267456 8.921707
										CHANNELS 6 Xposition Yposition Zposition Zrotation Yrotation Xrotation
										JOINT LeftHandRing2
										{
											OFFSET 0.000000 0.000000 4.061096
											CHANNELS 6 Xposition Yposition Zposition Zrotation Yrotation Xrotation
											JOINT LeftHandRing3
											{
												OFFSET 0.000000 0.000000 3.654984
												CHANNELS 6 Xposition Yposition Zposition Zrotation Yrotation Xrotation
												JOINT LeftHandRing4
												{
													OFFSET 0.000000 0.000000 2.741241
													CHANNELS 6 Xposition Yposition Zposition Zrotation Yrotation Xrotation
													End Site
													{
														OFFSET 0.000000 0.000000 0.100006
													}
												}
											}
										}
									}
									JOINT LeftHandPinky1
									{
										OFFSET 0.173492 4.467224 7.976990
										CHANNELS 6 Xposition Yposition Zposition Zrotation Yrotation Xrotation
										JOINT LeftHandPinky2
										{
											OFFSET 0.000000 0.000000 3.350403
											CHANNELS 6 Xposition Yposition Zposition Zrotation Yrotation Xrotation
											JOINT LeftHandPinky3
											{
												OFFSET 0.000000 0.000000 2.842758
												CHANNELS 6 Xposition Yposition Zposition Zrotation Yrotation Xrotation
												JOINT LeftHandPinky4
												{
													OFFSET 0.000000 0.000000 2.639709
													CHANNELS 6 Xposition Yposition Zposition Zrotation Yrotation Xrotation
													End Site
													{
														OFFSET 0.000000 0.000000 0.100006
													}
												}
											}
										}
									}
									JOINT LeftForeArmEnd
									{
										OFFSET 0.000000 0.000000 0.000000
										CHANNELS 6 Xposition Yposition Zposition Zrotation Yrotation Xrotation
										End Site
										{
											OFFSET 0.000000 0.000000 0.100006
										}
									}
								}
								JOINT LeftArmEnd
								{
									OFFSET 0.000000 0.000000 0.000000
									CHANNELS 6 Xposition Yposition Zposition Zrotation Yrotation Xrotation
									End Site
									{
										OFFSET 0.000000 0.000000 0.100006
									}
								}
							}
						}
					}
				}
			}
		}
	}
	JOINT RightUpLeg
	{
		OFFSET -11.289948 0.000000 0.000000
		CHANNELS 6 Xposition Yposition Zposition Zrotation Yrotation Xrotation
		JOINT RightLeg
		{
			OFFSET 0.000000 0.000000 -38.200329
			CHANNELS 6 Xposition Yposition Zposition Zrotation Yrotation Xrotation
			JOINT RightFoot
			{
				OFFSET 0.000000 0.000000 -39.900856
				CHANNELS 6 Xposition Yposition Zposition Zrotation Yrotation Xrotation
				JOINT RightToeBase
				{
					OFFSET 0.000000 -15.261658 0.000001
					CHANNELS 6 Xposition Yposition Zposition Zrotation Yrotation Xrotation
					JOINT RightToeBaseEnd
					{
						OFFSET 0.000000 -7.370728 0.000000
						CHANNELS 6 Xposition Yposition Zposition Zrotation Yrotation Xrotation
						End Site
						{
							OFFSET 0.000000 0.000000 0.100000
						}
					}
				}
				JOINT RightLegEnd
				{
					OFFSET 0.000000 0.000000 0.000000
					CHANNELS 6 Xposition Yposition Zposition Zrotation Yrotation Xrotation
					End Site
					{
						OFFSET 0.000000 0.000000 0.100000
					}
				}
			}
			JOINT RightUpLegEnd
			{
				OFFSET 0.000000 0.000000 0.000000
				CHANNELS 6 Xposition Yposition Zposition Zrotation Yrotation Xrotation
				End Site
				{
					OFFSET 0.000000 0.000000 0.099998
				}
			}
		}
	}
	JOINT LeftUpLeg
	{
		OFFSET 11.315674 0.000000 0.000000
		CHANNELS 6 Xposition Yposition Zposition Zrotation Yrotation Xrotation
		JOINT LeftLeg
		{
			OFFSET 0.000000 0.000000 -38.200329
			CHANNELS 6 Xposition Yposition Zposition Zrotation Yrotation Xrotation
			JOINT LeftFoot
			{
				OFFSET 0.000000 0.000000 -39.900856
				CHANNELS 6 Xposition Yposition Zposition Zrotation Yrotation Xrotation
				JOINT LeftToeBase
				{
					OFFSET 0.000000 -15.261658 0.000001
					CHANNELS 6 Xposition Yposition Zposition Zrotation Yrotation Xrotation
					JOINT LeftToeBaseEnd
					{
						OFFSET 0.000000 -7.539978 0.000000
						CHANNELS 6 Xposition Yposition Zposition Zrotation Yrotation Xrotation
						End Site
						{
							OFFSET 0.000000 0.000000 0.100000
						}
					}
				}
				JOINT LeftLegEnd
				{
					OFFSET 0.000000 0.000000 0.000000
					CHANNELS 6 Xposition Yposition Zposition Zrotation Yrotation Xrotation
					End Site
					{
						OFFSET 0.000000 0.000000 0.100000
					}
				}
			}
			JOINT LeftUpLegEnd
			{
				OFFSET 0.000000 0.000000 0.000000
				CHANNELS 6 Xposition Yposition Zposition Zrotation Yrotation Xrotation
				End Site
				{
					OFFSET 0.000000 0.000000 0.099998
				}
			}
		}
	}
}
MOTION
Frames: 2
Frame Time: 0.016667
3.915558 -13.321716 84.375847 21.754673 7.536300 -12.005081 0.000011 2.080040 8.814246 0.278616 -2.006717 14.073973 -0.000000 -0.000013 8.844151 0.021781 0.200360 8.080312 -0.000004 -0.000006 11.682277 2.634724 0.172501 10.276393 0.000015 -0.000053 11.746710 1.690434 -0.924785 6.328715 -0.000008 0.000004 17.658251 -8.712198 -12.713064 -2.980743 -0.000004 0.000010 5.101498 -6.010754 -0.949915 -8.798275 0.000007 0.000016 5.101561 -0.662136 -2.331924 -20.881070 0.000003 -0.000001 11.655075 0.000000 0.000000 0.000000 -2.625400 -0.000006 11.175218 15.163860 -90.420332 -0.682701 -0.000015 0.000006 10.434732 11.087710 -56.381743 0.262606 0.000011 -0.000042 29.628456 39.609442 0.580244 25.275783 -0.000069 -0.000049 22.857601 -19.472108 18.488595 -5.453176 -2.867310 -2.944275 3.959579 32.364998 -13.750601 57.171835 -0.000017 0.000069 3.350412 -5.044761 4.261322 -9.634765 -0.000010 -0.000017 3.756527 -3.426256 3.050314 -6.648050 -0.000011 -0.000003 3.147356 0.000000 -0.000001 0.000001 -0.086769 -2.345266 10.030907 -5.559999 19.435858 9.158353 0.000008 -0.000046 4.061096 0.506955 -0.000019 -0.000010 -0.000005 -0.000024 3.248883 0.006674 0.000003 -0.000015 -0.000005 -0.000005 2.639718 0.000000 -0.000001 0.000000 0.104092 -0.006811 9.502937 -0.568336 17.313833 7.535266 -0.000002 -0.000011 4.568741 0.513309 0.048422 0.000420 0.000033 0.000029 3.655005 0.011407 -0.026927 -0.000012 0.000006 0.000004 2.741261 -0.000001 -0.000000 -0.000002 0.086739 2.267475 8.921719 7.006154 12.961276 5.959586 -0.000014 0.000012 4.061098 -1.005367 -0.000071 0.001236 -0.000034 -0.000002 3.654992 -0.012331 -0.001116 0.002460 0.000015 0.000002 2.741246 -0.000001 0.000001 0.000002 -0.173492 4.467167 7.976986 14.864957 9.244150 2.199639 0.000013 -0.000029 3.350413 -2.004821 -0.000250 0.000006 0.000008 0.000013 2.842767 -0.004292 -0.000000 -0.000637 -0.000010 0.000008 2.639710 -0.000000 -0.000002 0.000000 -0.000031 0.000006 -0.000000 -0.000001 -0.000003 -0.000001 0.000007 0.000022 0.000005 -0.000001 -0.000002 -0.000002 2.625397 0.000016 11.175199 -10.682715 84.474878 -0.168553 -0.000031 0.000032 10.813637 37.515128 67.466580 26.080376 -0.000038 -0.000046 28.724737 -15.377505 0.456672 42.175595 0.644276 0.328928 25.716167 -36.135181 6.397147 -14.759108 2.867325 -2.944244 3.959579 -32.131225 14.558150 55.809831 0.000004 0.000034 3.350391 6.766424 -5.410222 -12.731524 0.000015 0.000031 3.756519 4.568763 -3.919477 -8.764319 -0.000012 0.000007 3.100007 -0.000000 -0.000001 -0.000001 0.086777 -2.345314 10.030884 -9.646736 -5.483419 13.432806 0.000012 -0.000086 4.061097 0.517377 -0.000004 -0.000001 -0.000009 0.000010 3.248864 0.016209 -0.000010 0.000389 -0.000001 0.000005 2.639715 -0.000001 0.000000 -0.000000 -0.104094 -0.006832 9.502924 -4.460857 -5.039660 10.888957 -0.000008 -0.000022 4.568702 0.517885 0.000185 0.000488 0.000009 -0.000019 3.654978 0.019372 -0.000014 0.000356 -0.000007 -0.000017 2.741235 0.000003 -0.000001 0.000000 -0.086759 2.267357 8.921698 4.220154 -1.979090 8.176339 0.000008 0.000003 4.061083 -0.999715 0.000001 0.000000 -0.000010 0.000015 3.654972 0.000018 0.000002 0.000001 0.000009 0.000002 2.741208 -0.000001 -0.000000 0.000000 0.173488 4.467232 7.976971 13.295796 0.708793 6.021314 -0.000028 -0.000045 3.350409 -1.996552 1.426199 0.277154 -0.000016 -0.000065 2.842778 0.003454 1.425386 0.277185 -0.000032 -0.000050 2.639720 -0.000002 0.000000 0.000001 0.000005 0.000001 -0.000016 0.000000 -0.000001 -0.000000 -0.000032 -0.000001 0.000005 0.000000 -0.000001 0.000000 -11.289932 0.000039 0.000004 -0.218208 12.993910 6.264539 0.000001 0.000014 -38.200333 -0.172148 0.086541 26.692634 -0.000052 0.000030 -39.900871 -24.933168 0.783574 34.804793 -0.000014 -15.261659 -0.000035 2.197291 -5.332463 -29.238138 -0.000005 -7.370712 -0.000001 -0.000003 0.000001 -0.000000 0.000009 0.000010 0.000000 -0.000002 -0.000000 -0.000001 -0.000014 -0.000004 -0.000002 0.000001 0.000000 -0.000001 11.315699 0.000017 0.000010 -12.015391 -4.851398 -11.799679 0.000024 -0.000001 -38.200329 -0.248928 0.258707 46.114190 0.000010 -0.000077 -39.900856 11.056927 -1.404445 4.535521 0.000000 -15.261662 0.000006 -0.793101 0.028338 -18.864137 -0.000021 -7.539908 0.000000 -0.000001 0.000000 0.000000 -0.000041 0.000052 0.000000 0.000002 0.000000 0.000001 0.000008 -0.000007 -0.000006 0.000001 -0.000000 0.000003 
3.745483 -13.352417 84.424156 21.014298 7.483475 -12.065392 0.000005 2.080072 8.814247 0.303434 -1.953275 13.969062 0.000007 0.000018 8.844158 0.072148 0.245049 7.941977 -0.000008 -0.000025 11.682292 2.741207 0.225008 10.019520 -0.000000 -0.000031 11.746720 1.763114 -0.924032 6.237727 -0.000015 0.000003 17.658268 -8.554925 -12.423429 -1.971955 -0.000007 0.000008 5.101554 -5.784535 -0.865809 -8.136765 0.000000 0.000023 5.101490 -0.668334 -2.238305 -20.724274 -0.000002 0.000001 11.655109 -0.000000 0.000000 -0.000000 -2.625422 -0.000006 11.175223 15.397261 -90.333760 -0.931042 0.000015 -0.000095 10.434706 4.792567 -57.070192 4.710758 0.000046 -0.000031 29.628428 40.061030 0.597582 26.315870 -0.000053 -0.000017 22.857586 -16.073378 16.606603 -3.474424 -2.867310 -2.944290 3.959526 32.131409 -14.558109 55.808731 -0.000006 0.000015 3.350388 -6.766201 5.410496 -12.729295 0.000000 0.000013 3.756519 -4.569061 3.919090 -8.765439 0.000003 0.000016 3.147337 -0.000002 0.000000 0.000000 -0.086765 -2.345284 10.030907 -6.620801 12.237013 9.767276 0.000010 -0.000022 4.061108 0.503998 -0.000053 -0.000004 -0.000010 -0.000029 3.248876 0.003886 0.000002 -0.000013 0.000001 -0.000063 2.639714 -0.000000 -0.000001 -0.000001 0.104084 -0.006763 9.502945 -1.761866 10.364433 7.947606 -0.000000 0.000008 4.568727 0.508353 -0.000015 -0.000012 -0.000023 0.000017 3.655010 0.007142 0.000010 -0.000009 0.000003 -0.000004 2.741281 -0.000001 -0.000002 -0.000002 0.086777 2.267433 8.921715 5.666993 6.097282 6.397758 -0.000037 0.000019 4.061104 -1.002686 -0.000109 -0.001135 -0.000006 0.000010 3.654997 -0.006735 0.000005 -0.000400 0.000009 0.000003 2.741230 -0.000002 0.000002 0.000001 -0.173489 4.467223 7.976974 13.601131 2.840867 2.606715 0.000008 -0.000026 3.350387 -2.000696 0.000023 0.000003 -0.000014 0.000043 2.842768 -0.000586 0.000001 -0.000004 0.000009 0.000020 2.639730 -0.000002 0.000001 -0.000000 -0.000016 0.000012 -0.000020 -0.000001 0.000001 -0.000000 -0.000005 -0.000003 -0.000012 0.000000 0.000002 0.000001 2.625401 -0.000002 11.175218 -10.859107 84.809305 -0.181187 0.000000 0.000017 10.813629 36.610401 67.256251 26.270731 -0.000008 -0.000069 28.724714 -15.760650 0.468533 41.254168 0.644367 0.328905 25.716211 -38.508723 5.240333 -14.442696 2.867279 -2.944275 3.959557 -32.047821 14.886664 55.266117 0.000008 0.000027 3.350403 7.472749 -5.843844 -13.978180 0.000006 -0.000004 3.756496 5.035393 -4.254672 -9.617814 -0.000009 0.000012 3.100008 -0.000000 -0.000000 -0.000002 0.086769 -2.345299 10.030869 -9.288281 -3.584884 11.808770 -0.000005 -0.000019 4.061090 0.512788 0.000401 0.000005 0.000006 0.000019 3.248872 0.011929 -0.000220 0.000303 0.000010 0.000049 2.639721 0.000003 -0.000000 0.000000 -0.104097 -0.006760 9.502930 -4.105471 -3.089038 9.614101 0.000011 0.000015 4.568739 0.513420 0.000132 0.000137 -0.000005 0.000025 3.654995 0.014316 -0.000010 0.000074 -0.000014 0.000016 2.741255 -0.000002 -0.000000 -0.000000 -0.086766 2.267447 8.921686 4.604568 0.223184 7.488979 0.000010 0.000020 4.061103 -0.997610 0.575676 0.035110 -0.000000 0.000013 3.655005 0.001958 0.572996 0.035007 0.000006 0.000004 2.741245 -0.000000 -0.000000 -0.000000 0.173477 4.467192 7.976971 13.715779 3.005983 5.794513 -0.000040 -0.000034 3.350401 -1.985204 2.952129 0.574347 -0.000026 -0.000091 2.842754 0.014797 2.952103 0.574348 -0.000041 -0.000061 2.639691 -0.000000 0.000000 0.000001 -0.000004 -0.000002 -0.000019 0.000000 -0.000000 0.000000 0.000035 -0.000000 0.000030 -0.000000 0.000003 -0.000001 -11.289955 0.000056 -0.000008 -0.132450 12.934265 6.166992 0.000006 -0.000010 -38.200329 -0.196393 0.097723 26.455389 0.000000 -0.000020 -39.900856 -24.776019 0.616979 34.501201 0.000003 -15.261683 0.000014 2.138001 -5.040765 -28.828159 -0.000005 -7.370723 0.000001 -0.000001 -0.000002 -0.000003 0.000008 -0.000003 0.000002 0.000000 0.000002 0.000001 0.000004 -0.000005 0.000001 0.000001 -0.000001 -0.000000 11.315695 0.000036 0.000002 -11.378895 -5.057602 -11.646097 0.000018 -0.000012 -38.200336 -0.242409 0.251038 46.001771 0.000002 -0.000079 -39.900852 11.070229 -1.254966 4.618968 -0.000003 -15.261732 0.000013 -0.784180 0.004824 -18.960291 -0.000016 -7.539916 -0.000001 -0.000000 0.000000 0.000000 -0.000022 0.000054 -0.000001 0.000001 0.000001 -0.000002 0.000020 -0.000004 0.000003 0.000001 -0.000000 0.000000 
